<svg xmlns="http://www.w3.org/2000/svg" viewBox="0 0 694 765"><path fill="#4a7bb5" fill-rule="evenodd" d="M259.942 22.287c-17.978 6.129-31.071 19.817-36.552 38.213-2.42 8.122-2.42 23.878 0 32 4.48 15.037 15.249 28.179 28.537 34.827 4.038 2.02 7.956 3.673 8.707 3.673 1.047 0 1.366 1.983 1.366 8.5v8.5H145.25l-.625 3.125c-.344 1.719-.625 7.785-.625 13.481 0 9.922.094 10.377 2.25 10.866 1.237.28 26.55 3.892 56.25 8.026 29.7 4.133 54.905 7.719 56.011 7.968 2.001.45 1.967 1.625-6.192 212.743-4.512 116.76-8.23 212.899-8.261 213.642-.069 1.62-7.894 1.065-26.653-1.889-60.171-9.476-111.654-37.877-140.656-77.596-2.062-2.824-3.749-5.55-3.749-6.059s4.017-1.741 8.927-2.737l8.926-1.813-16.215-16.128c-23.951-23.825-36.658-41.77-38.291-54.076-.926-6.973-1.887-3.77-3.798 12.655-2.981 25.623-1.52 57.693 3.442 75.539 2.176 7.829 7.842 21.253 8.97 21.253.382 0 2.845-4.485 5.474-9.967 2.629-5.481 5.356-10.445 6.06-11.029.976-.81 1.938.075 4.044 3.717 4.971 8.596 19.1 26.604 27.617 35.199 18.821 18.993 37.509 31.349 96.975 64.118 15.969 8.8 31.584 17.71 34.702 19.801s8.592 5.528 12.167 7.639 11.945 7.374 18.599 11.695l12.099 7.857 163.901-.541c90.146-.298 173.89-.804 186.098-1.125l22.198-.583 16.552-26.815c9.104-14.748 16.553-27.074 16.553-27.39 0-.317-17.679-.576-39.288-.576h-39.287l-4.925 5-4.925 5H310.306l-.596-10.75c-1.244-22.484-15.017-445.276-14.521-445.773.287-.286 25.778-4.027 56.647-8.313s56.321-7.988 56.561-8.228c.239-.24.585-6.399.769-13.687l.334-13.252-47.593.002c-26.176 0-53.064-.293-59.75-.653L290 147.693v-7.878c0-6.622.279-7.967 1.75-8.438.962-.309 5.055-2.14 9.095-4.071 21.763-10.399 34.424-35.997 30.197-61.055-3.529-20.924-20.27-39.46-40.542-44.888-8.064-2.16-22.821-1.713-30.558.924m11.79 21.846c-9.868 1.462-18.762 8.185-23.834 18.018-3.411 6.613-3.791 18.495-.841 26.318 4.887 12.962 17.592 21.159 31.443 20.288 28.275-1.78 40.16-37.146 19.029-56.623-7.284-6.715-16.075-9.441-25.797-8.001M484 201.822v4.822l-40 29.244-40 29.244V287h18v28h38.944l.278-13.75.278-13.75 11.25-.283 11.25-.283V472h36V287h33.013l-3.007 4.15c-2.471 3.412-3.006 5.125-3.006 9.632 0 8.269 3.735 13.033 12.25 15.623 1.64.499 1.748 4.069 1.724 56.814l-.026 56.281-8.144-15.443-8.144-15.444-4.819 5.444c-2.65 2.994-4.824 5.837-4.83 6.318-.018 1.442 19.981 39.474 21.619 41.112 2.3 2.3 7.671 1.906 10.03-.737 1.106-1.238 12.096-20.324 24.425-42.415L613.5 368.17l.259 51.915.259 51.915H630V341h-8.345c-6.711 0-8.638.343-9.842 1.75-.823.962-11.754 20.425-24.292 43.25-12.537 22.825-22.962 41.691-23.167 41.925-.204.234-.255-24.709-.112-55.428l.258-55.853 2.881-.771c5.974-1.597 10.619-8.11 10.619-14.889 0-4.664-1.119-7.277-4.809-11.234l-2.565-2.75H618v-22h-17.764l-39.868-29.089-39.868-29.09-.302-4.91-.303-4.911H484zm9-1.445c0 .207 4.387 2.983 9.75 6.168s10.763 6.443 12 7.239l2.25 1.446V200h-12c-6.6 0-12 .17-12 .377m-6 17.148c0 15.091.158 16.628 1.648 16.056 1.797-.689 23.059-13.281 25.124-14.878.932-.721-1.605-2.707-9.5-7.436-5.925-3.548-12.234-7.346-14.022-8.441l-3.25-1.989zm-40 20.296L410.5 264.5l36.404.263c20.022.144 36.567.099 36.767-.1.199-.2.242-12.324.096-26.942l-.267-26.58zm73-14.045v12.894l34 11.995c18.7 6.598 34 11.879 34 11.736 0-.274-64.613-47.48-66.75-48.766-.974-.587-1.25 2.091-1.25 12.141m-15.5 4.477-12 7.247 8.849.29c4.888.161 9.387-.156 10.052-.708.662-.549 2.192-.74 3.401-.424 2.112.553 2.198.297 2.198-6.541 0-3.915-.112-7.116-.25-7.114s-5.65 3.264-12.25 7.25m-11.417 11.14c.23.216 5.705 3.578 12.167 7.472l11.75 7.08V239h-12.167c-6.691 0-11.979.177-11.75.393M487 252.417V265h30l-.018-3.75c-.019-4.085 1.641-2.859-25.155-18.583L487 239.835zm33 .583v12l34.25-.03c19.13-.017 33.588-.403 32.75-.874-2.275-1.279-64.436-23.096-65.806-23.096-.859 0-1.194 3.366-1.194 12m-109.807 16.828c2.508 3.508 8.504 10.172 9.153 10.172.36 0 .654-2.7.654-6v-6h-5.557c-5.192 0-5.471.12-4.25 1.828m12.839 4.422.032 6.25L428 275c2.715-3.025 4.951-5.837 4.968-6.25S430.75 268 428 268h-5zm20.088-3.5a298 298 0 0 1 5.687 6.535L452 281.07V268h-11.374zM455 274c0 3.3.337 5.974.75 5.943s2.923-2.731 5.58-6l4.829-5.943H455zm19.943-4.25c.557.962 2.81 3.775 5.005 6.25l3.992 4.5.03-6.25.03-6.25h-5.035c-4.515 0-4.931.181-4.022 1.75M487 274c0 3.3.337 6 .75 6 .733-.001 8.135-8.273 9.619-10.75.563-.94-.63-1.25-4.81-1.25H487zm21.906-2.25c1.691 2.063 4.201 5.1 5.579 6.75l2.505 3 .005-6.75L517 268h-11.168zM520 274c0 3.3.18 6 .401 6s2.74-2.7 5.599-6l5.198-6H520zm23.081 0c2.871 3.3 5.376 6 5.569 6s.35-2.7.35-6v-6h-11.137zm8.955.75.036 6.75 2.515-3a615 615 0 0 0 5.548-6.75l3.033-3.75H552zm20.086-5c5.028 6.435 8.411 10.25 9.09 10.25.433 0 .788-2.7.788-6v-6h-5.622c-5.209 0-5.522.129-4.256 1.75m12.889 4.5.011 6.25 4.946-5.5c2.72-3.025 4.965-5.837 4.989-6.25S592.75 268 590 268h-5zm18.013-5.5c.014.413 2.471 3.45 5.461 6.75l5.437 6 .039-6.75L614 268h-5.5c-3.025 0-5.489.337-5.476.75m-171.929 7.714L424.861 284h25.383l-5.807-6.75a1664 1664 0 0 1-6.458-7.536c-.358-.432-3.456 2.605-6.884 6.75m32.655-.498c-3.163 3.76-5.75 7.106-5.75 7.435 0 .33 5.438.599 12.084.599h12.084l-2.99-3.75a187 187 0 0 0-6.334-7.435l-3.344-3.685zm32.268.332-6.11 7.202 11.68.283c6.424.155 11.89.072 12.148-.186.258-.257-2.249-3.625-5.57-7.484l-6.038-7.016zm32.201.161L521.938 284h25.248l-4.343-5.119a1015 1015 0 0 1-6.343-7.541l-2-2.421zm32.174.291-5.733 6.75 6.17.298c3.394.163 8.885.163 12.203 0l6.033-.298-5.609-6.75c-3.084-3.712-5.996-6.75-6.47-6.75s-3.441 3.038-6.594 6.75m34.069-2.038c-2.179 2.592-4.782 5.742-5.785 7L586.855 284h24.263l-5.758-7c-3.167-3.85-6.024-7-6.348-7s-2.371 2.121-4.55 4.712M406 278v6h5.559c4.18 0 5.373-.31 4.81-1.25-1.484-2.477-8.886-10.749-9.619-10.75-.413 0-.75 2.7-.75 6m19.434 10.311c-.277.721-.375 6.459-.219 12.75l.285 11.439 16.25.275 16.25.275V287h-16.031c-12.302 0-16.149.305-16.535 1.311M487 299.5c0 6.875.261 12.5.579 12.5s7.068-3.885 15-8.632L517 294.735V287h-30zm70.27-10.017c-8.424 3.661-9.675 16.785-2.071 21.71 4.336 2.809 7.71 3.03 12.303.806 4.499-2.178 7.498-6.644 7.498-11.166 0-3.776-3.368-9.025-7.062-11.006-4.035-2.164-6.313-2.238-10.668-.344m-.959 2.469c-7.03 4.286-5.984 15.87 1.721 19.061 7.09 2.937 14.968-2.426 14.968-10.19 0-3.242-.66-4.683-3.4-7.423-4.006-4.006-8.323-4.476-13.289-1.448m2.721 6.988c-1.646 3.076.359 6.269 3.684 5.87 3.349-.402 5.177-3.166 3.678-5.56-1.644-2.626-6.024-2.81-7.362-.31m-53.892 6.552c-5.698 3.481-10.851 6.819-11.45 7.418-.787.787 2.305 1.09 11.11 1.09H517v-7.5c0-4.125-.337-7.463-.75-7.418-.413.046-5.412 2.93-11.11 6.41m-1.64 18.129c6.05 3.64 11.563 6.838 12.25 7.106.928.362 1.25-1.341 1.25-6.62V317l-12.25.002-12.25.001zM487 334.5c0 9.075.178 16.5.395 16.5 1.595 0 27.615-16.369 26.951-16.955-1.158-1.023-26.342-16.045-26.899-16.045-.246 0-.447 7.425-.447 16.5m17 10.573-11.5 6.895 12.25.016L517 352v-7c0-3.85-.337-6.96-.75-6.911s-5.925 3.192-12.25 6.984M374.295 406.25l-26.094 65.25 8.078.293c6.714.244 8.369-.009 9.794-1.5 1.507-1.576 35.633-88.356 41.359-105.174l2.173-6.381 1.305 4.381c3.035 10.186 40.386 105.536 41.984 107.174 1.451 1.489 3.122 1.744 9.827 1.5l8.078-.293-26.094-65.25L418.611 341h-18.222zm118.713-50.5c.006.601 20.102 12.807 23.187 14.083.443.184.805-3.079.805-7.25V355h-12c-6.6 0-11.996.337-11.992.75M487 373.5c0 9.075.201 16.5.447 16.5.557 0 25.741-15.022 26.899-16.045.664-.586-25.356-16.955-26.951-16.955-.217 0-.395 7.425-.395 16.5m17 10.537-11.5 6.96 12.25.001L517 391v-7c0-3.85-.337-6.983-.75-6.962s-5.925 3.171-12.25 6.999m-9.964 11.318C495.555 396.76 515.747 409 516.547 409c.249 0 .453-3.375.453-7.5V394h-12.214c-10.329 0-11.989.209-10.75 1.355M487 412.535c0 16.522.002 16.534 2.114 15.404 2.39-1.279 25.215-14.996 25.702-15.445.362-.335-26.299-16.494-27.214-16.494-.331 0-.602 7.441-.602 16.535m17.735 9.906L492.97 429.5l11.649.283c6.407.155 11.834.097 12.061-.13s.279-3.531.116-7.342l-.296-6.93zM493 433.436c0 .331 18.887 11.93 23.25 14.278.413.222.75-2.998.75-7.155V433h-12c-6.6 0-12 .196-12 .436m-6 18.163v16.599l3.75-2.204c16.55-9.726 24.056-14.498 23.703-15.07-.534-.864-25.841-15.924-26.76-15.924-.381 0-.693 7.469-.693 16.599m17.735 9.842L492.97 468.5l11.649.283c6.407.155 11.834.097 12.061-.13s.279-3.531.116-7.342l-.296-6.93zM435.9 492.199c-2.589 5.149-3.709 8.365-2.996 8.602 3.582 1.194 13.82 9.174 17.11 13.336 14.369 18.178 17.149 49.492 6.45 72.648-3.906 8.454-13.358 18.652-20.188 21.78-2.324 1.064-4.236 2.294-4.25 2.732-.037 1.146 8.045 15.703 8.718 15.703.31 0 3.532-1.648 7.16-3.662 3.927-2.18 9.855-6.935 14.651-11.75 13.439-13.493 19.942-29.079 21.139-50.663 1.869-33.669-12.722-61.355-39.427-74.815l-4.233-2.133zm-64.4-3.954c-7.984 4.247-21.155 17.409-25.772 25.755-7.927 14.33-11.482 32.703-9.772 50.5 1.227 12.772 2.583 17.608 8.24 29.403 4.203 8.765 6.195 11.603 12.647 18.021 5.122 5.095 10.081 8.882 14.981 11.44 4.027 2.102 7.44 3.668 7.582 3.479.143-.189 2.102-3.806 4.355-8.038l4.097-7.694-5.592-3.156c-7.774-4.388-14.548-11.71-18.712-20.226-5.35-10.945-6.939-18.35-6.915-32.229.022-13.102 2.154-23.212 6.848-32.474 3.486-6.88 12.547-16.275 18.908-19.606l5.418-2.836-3.918-7.792c-2.154-4.286-4.475-7.78-5.156-7.765-.682.014-3.939 1.462-7.239 3.218m185.863.788c-26.004 4.648-45.544 22.759-52.522 48.68-2.764 10.264-3.005 30.491-.488 40.787 2.886 11.806 9.083 23.008 17.149 31 14.32 14.188 30.918 20.485 53.998 20.485 16.392 0 28.522-3.008 41.25-10.229l7.25-4.113V593h-17v13.813l-7.354 3.062c-17.603 7.328-39.214 6.323-54.315-2.527-2.334-1.368-6.697-5.136-9.694-8.374-9.592-10.36-13.597-22.126-13.622-40.014-.025-17.458 4.736-30.841 14.413-40.519 16.305-16.304 46.357-18.979 67.842-6.039 8.475 5.105 9.343 5.23 12.508 1.799 1.497-1.623 3.512-4.318 4.477-5.988l1.754-3.037-3.754-2.955c-5.784-4.55-14.05-8.829-21.755-11.261-5.508-1.738-9.985-2.277-21-2.527-7.7-.175-16.312.095-19.137.6M581 567.3c0 3.567.521 6.821 1.2 7.5.809.809 5.387 1.2 14.04 1.2 13.593 0 16.422-.75 24.077-6.382 2.486-1.83 5.683-6.368 5.683-8.068 0-.303-10.125-.55-22.5-.55H581zM257.06 703.75a659 659 0 0 1-1.808 5c-.372.997 36.851 1.25 184.026 1.25H623.77l1.615-2.5 3.23-5 1.615-2.5H258.402zm63.399 9.317c-1.173 1.897.537 2.365 2.279.623 1.559-1.558 1.562-1.69.035-1.69-.91 0-1.952.48-2.314 1.067M258 725v9h5.5c3.025 0 5.5-.45 5.5-1s-2.025-1-4.5-1H260v-8c0-4.667-.417-8-1-8-.593 0-1 3.667-1 9m18.328-6.606C270.169 723.692 274.245 734 282.5 734c2.133 0 4.42-.887 6.172-2.394 6.159-5.298 2.083-15.606-6.172-15.606-2.133 0-4.42.887-6.172 2.394m25.172-1.186c-3.18 1.823-4.434 4.028-4.468 7.853-.056 6.283 5.695 10.161 12.285 8.283 2.753-.785 3.225-1.41 3.493-4.626.237-2.835-.06-3.718-1.25-3.718-1.064 0-1.56.947-1.56 2.981 0 3.781-3.727 5.083-7.491 2.617-6.931-4.542-.867-15.536 6.419-11.637 1.162.622 2.615.822 3.228.443 1.505-.931-2.922-3.332-6.156-3.338-1.375-.003-3.4.511-4.5 1.142M320 725c0 5.333.407 9 1 9s1-3.667 1-9-.407-9-1-9-1 3.667-1 9m11.223-7.443c-4.26 2.983-1.882 7.286 4.955 8.966 3.25.798 4.243 2.883 2.186 4.59-1.152.956-2.472 1.004-5.481.201-2.902-.774-3.865-.757-3.592.064.631 1.902 5.463 3.096 8.355 2.065 6.306-2.247 5.542-7.014-1.488-9.288-6.778-2.192-4.701-7.333 2.257-5.587 2.804.704 3.648-.946 1.003-1.961-2.708-1.039-5.881-.671-8.195.95M345 717c0 .55 1.35 1 3 1h3v8c0 6.444.292 8 1.5 8s1.5-1.556 1.5-8v-8h3c1.65 0 3-.45 3-1 0-.578-3.167-1-7.5-1s-7.5.422-7.5 1m20 8c0 5.333.407 9 1 9s1-3.667 1-9-.407-9-1-9-1 3.667-1 9m11.923-6.077C374.928 720.918 374 722.848 374 725c0 6.65 7.851 10.952 13.885 7.607 3.126-1.732 1.099-3.013-2.31-1.459-5.274 2.403-10.694-3.075-8.57-8.66 1.33-3.498 5.235-5.155 8.57-3.636 3.409 1.554 5.436.273 2.31-1.459-3.979-2.206-7.753-1.679-10.962 1.53m22.041 1.577-3.928 9c-2.112 4.837-1.13 6.099 1.556 2 2.408-3.675 8.483-3.541 11.243.248 1.101 1.512 2.273 2.477 2.605 2.146.873-.874-7.145-17.894-8.43-17.894-.594 0-1.965 2.025-3.046 4.5m30 0-3.928 9c-2.112 4.837-1.13 6.099 1.556 2 2.408-3.675 8.483-3.541 11.243.248 1.101 1.512 2.273 2.477 2.605 2.146.873-.874-7.145-17.894-8.43-17.894-.594 0-1.965 2.025-3.046 4.5M453 717c0 .55 1.35 1 3 1h3v8c0 10.277 1.822 10.483 2.208.25.287-7.629.335-7.755 3.042-8.066 5.55-.639 2.543-2.184-4.25-2.184-4 0-7 .429-7 1m19.177 6.12c.337 5.966.779 7.426 2.723 9 3.369 2.728 7.534 2.415 10.027-.755 1.604-2.039 2.073-4.075 2.073-9 0-3.577-.438-6.365-1-6.365-.553 0-1 2.63-1 5.889 0 7.703-2.344 11.078-6.645 9.57-2.742-.961-2.867-1.286-3.149-8.23-.235-5.776-.609-7.229-1.863-7.229-1.316 0-1.504 1.148-1.166 7.12M504 725c0 10.193 1.744 12.371 2.202 2.75l.298-6.25 2.845 4.75c1.565 2.612 3.233 4.75 3.708 4.75.474 0 2.119-2.138 3.655-4.75l2.792-4.75.298 6.25c.458 9.621 2.202 7.443 2.202-2.75 0-4.95-.337-8.995-.75-8.989s-2.302 2.706-4.198 6-3.697 5.984-4 5.977c-.304-.006-2.032-2.706-3.841-6s-3.722-5.988-4.25-5.988c-.543 0-.961 3.911-.961 9m26 0v9h6.5c3.667 0 6.5-.436 6.5-1 0-.55-2.25-1-5-1-4.889 0-5-.067-5-3 0-2.833.222-3 4-3 2.2 0 4-.45 4-1s-1.8-1-4-1c-3.778 0-4-.167-4-3 0-2.889.167-3 4.5-3 2.475 0 4.5-.45 4.5-1 0-.556-2.667-1-6-1h-6zm20 0v9h3.851c5.071 0 9.953-1.765 11.17-4.039.538-1.006.979-3.239.979-4.961s-.441-3.955-.979-4.961c-1.217-2.274-6.099-4.039-11.17-4.039H550zm23 0c0 5.333.407 9 1 9s1-3.667 1-9-.407-9-1-9-1 3.667-1 9m10 0v9l4.25-.002c5.887-.002 10.998-2.758 12.05-6.498 1.869-6.648-3.306-11.5-12.268-11.5H583zm24.643-.916c-2.003 4.447-3.643 8.497-3.643 9 0 1.819 1.704.861 2.818-1.584.962-2.11 1.819-2.5 5.5-2.5s4.539.39 5.5 2.5c1 2.194 3.182 3.511 3.182 1.921 0-1.877-7.668-17.421-8.594-17.421-.616 0-2.759 3.638-4.763 8.084M278 720c-4.13 4.13-1.179 12 4.5 12 1.375 0 3.4-.9 4.5-2 4.13-4.13 1.179-12-4.5-12-1.375 0-3.4.9-4.5 2m274 5v7.263l4.078-.547c4.999-.67 7.922-3.148 7.922-6.716s-2.923-6.046-7.922-6.716l-4.078-.547zm33.412-5.631c-.289.753-.388 3.791-.219 6.75.273 4.777.57 5.418 2.652 5.713 5.917.838 10.181-3.607 8.787-9.161-.971-3.872-9.984-6.524-11.22-3.302m25.316 3.075c-2.392 5.017-2.22 5.556 1.772 5.556 3.958 0 3.981-.076 1.654-5.34l-1.697-3.841zm-210.63.705C398.527 727.656 398.662 728 402 728c3.307 0 3.74-1.283 1.839-5.453-1.528-3.355-2.411-3.213-3.741.602m30 0C428.527 727.656 428.662 728 432 728c3.307 0 3.74-1.283 1.839-5.453-1.528-3.355-2.411-3.213-3.741.602"/></svg>