<svg xmlns="http://www.w3.org/2000/svg" width="100%" height="100%" viewBox="0 0 694 765" version="1.1">
	<path d="M 259.942 22.287 C 241.964 28.416, 228.871 42.104, 223.390 60.500 C 220.970 68.622, 220.970 84.378, 223.390 92.500 C 227.870 107.537, 238.639 120.679, 251.927 127.327 C 255.965 129.347, 259.883 131, 260.634 131 C 261.681 131, 262 132.983, 262 139.500 L 262 148 203.625 148 L 145.250 148 144.625 151.125 C 144.281 152.844, 144 158.910, 144 164.606 C 144 174.528, 144.094 174.983, 146.250 175.472 C 147.487 175.752, 172.800 179.364, 202.500 183.498 C 232.200 187.631, 257.405 191.217, 258.511 191.466 C 260.512 191.916, 260.478 193.091, 252.319 404.209 C 247.807 520.969, 244.089 617.108, 244.058 617.851 C 243.989 619.471, 236.164 618.916, 217.405 615.962 C 157.234 606.486, 105.751 578.085, 76.749 538.366 C 74.687 535.542, 73 532.816, 73 532.307 C 73 531.798, 77.017 530.566, 81.927 529.570 L 90.853 527.757 74.638 511.629 C 50.687 487.804, 37.980 469.859, 36.347 457.553 C 35.421 450.580, 34.460 453.783, 32.549 470.208 C 29.568 495.831, 31.029 527.901, 35.991 545.747 C 38.167 553.576, 43.833 567, 44.961 567 C 45.343 567, 47.806 562.515, 50.435 557.033 C 53.064 551.552, 55.791 546.588, 56.495 546.004 C 57.471 545.194, 58.433 546.079, 60.539 549.721 C 65.510 558.317, 79.639 576.325, 88.156 584.920 C 106.977 603.913, 125.665 616.269, 185.131 649.038 C 201.100 657.838, 216.715 666.748, 219.833 668.839 C 222.950 670.930, 228.425 674.367, 232 676.478 C 235.575 678.590, 243.945 683.852, 250.599 688.173 L 262.698 696.030 426.599 695.489 C 516.745 695.191, 600.489 694.685, 612.697 694.364 L 634.895 693.781 651.447 666.966 C 660.551 652.218, 668 639.892, 668 639.576 C 668 639.259, 650.321 639, 628.712 639 L 589.425 639 584.500 644 L 579.575 649 444.940 649 L 310.306 649 309.710 638.250 C 308.466 615.766, 294.693 192.974, 295.189 192.477 C 295.476 192.191, 320.967 188.450, 351.836 184.164 C 382.705 179.878, 408.157 176.176, 408.397 175.936 C 408.636 175.696, 408.982 169.537, 409.166 162.249 L 409.500 148.997 361.907 148.999 C 335.731 148.999, 308.843 148.706, 302.157 148.346 L 290 147.693 290 139.815 C 290 133.193, 290.279 131.848, 291.750 131.377 C 292.712 131.068, 296.805 129.237, 300.845 127.306 C 322.608 116.907, 335.269 91.309, 331.042 66.251 C 327.513 45.327, 310.772 26.791, 290.500 21.363 C 282.436 19.203, 267.679 19.650, 259.942 22.287 M 271.732 44.133 C 261.864 45.595, 252.970 52.318, 247.898 62.151 C 244.487 68.764, 244.107 80.646, 247.057 88.469 C 251.944 101.431, 264.649 109.628, 278.500 108.757 C 306.775 106.977, 318.660 71.611, 297.529 52.134 C 290.245 45.419, 281.454 42.693, 271.732 44.133 M 484 201.822 L 484 206.644 444 235.888 L 404 265.132 404 276.066 L 404 287 413 287 L 422 287 422 301 L 422 315 441.472 315 L 460.944 315 461.222 301.250 L 461.500 287.500 472.750 287.217 L 484 286.934 484 379.467 L 484 472 502 472 L 520 472 520 379.500 L 520 287 536.506 287 L 553.013 287 550.006 291.150 C 547.535 294.562, 547 296.275, 547 300.782 C 547 309.051, 550.735 313.815, 559.250 316.405 C 560.890 316.904, 560.998 320.474, 560.974 373.219 L 560.948 429.500 552.804 414.057 L 544.660 398.613 539.841 404.057 C 537.191 407.051, 535.017 409.894, 535.011 410.375 C 534.993 411.817, 554.992 449.849, 556.630 451.487 C 558.930 453.787, 564.301 453.393, 566.660 450.750 C 567.766 449.512, 578.756 430.426, 591.085 408.335 L 613.500 368.170 613.759 420.085 L 614.018 472 622.009 472 L 630 472 630 406.500 L 630 341 621.655 341 C 614.944 341, 613.017 341.343, 611.813 342.750 C 610.990 343.712, 600.059 363.175, 587.521 386 C 574.984 408.825, 564.559 427.691, 564.354 427.925 C 564.150 428.159, 564.099 403.216, 564.242 372.497 L 564.500 316.644 567.381 315.873 C 573.355 314.276, 578 307.763, 578 300.984 C 578 296.320, 576.881 293.707, 573.191 289.750 L 570.626 287 594.313 287 L 618 287 618 276 L 618 265 609.118 265 L 600.236 265 560.368 235.911 L 520.500 206.821 520.198 201.911 L 519.895 197 501.948 197 L 484 197 484 201.822 M 493 200.377 C 493 200.584, 497.387 203.360, 502.750 206.545 C 508.113 209.731, 513.513 212.988, 514.750 213.784 L 517 215.230 517 207.615 L 517 200 505 200 C 498.400 200, 493 200.170, 493 200.377 M 487 217.525 C 487 232.616, 487.158 234.153, 488.648 233.581 C 490.445 232.892, 511.707 220.300, 513.772 218.703 C 514.704 217.982, 512.167 215.996, 504.272 211.267 C 498.347 207.719, 492.038 203.921, 490.250 202.826 L 487 200.837 487 217.525 M 447 237.821 L 410.500 264.500 446.904 264.763 C 466.926 264.907, 483.471 264.862, 483.671 264.663 C 483.870 264.463, 483.913 252.339, 483.767 237.721 L 483.500 211.141 447 237.821 M 520 223.776 L 520 236.670 554 248.665 C 572.700 255.263, 588 260.544, 588 260.401 C 588 260.127, 523.387 212.921, 521.250 211.635 C 520.276 211.048, 520 213.726, 520 223.776 M 504.500 228.253 L 492.500 235.500 501.349 235.790 C 506.237 235.951, 510.736 235.634, 511.401 235.082 C 512.063 234.533, 513.593 234.342, 514.802 234.658 C 516.914 235.211, 517 234.955, 517 228.117 C 517 224.202, 516.888 221.001, 516.750 221.003 C 516.612 221.005, 511.100 224.267, 504.500 228.253 M 493.083 239.393 C 493.313 239.609, 498.788 242.971, 505.250 246.865 L 517 253.945 517 246.473 L 517 239 504.833 239 C 498.142 239, 492.854 239.177, 493.083 239.393 M 487 252.417 L 487 265 502 265 L 517 265 516.982 261.250 C 516.963 257.165, 518.623 258.391, 491.827 242.667 L 487 239.835 487 252.417 M 520 253 L 520 265 554.250 264.970 C 573.380 264.953, 587.838 264.567, 587 264.096 C 584.725 262.817, 522.564 241, 521.194 241 C 520.335 241, 520 244.366, 520 253 M 410.193 269.828 C 412.701 273.336, 418.697 280, 419.346 280 C 419.706 280, 420 277.300, 420 274 L 420 268 414.443 268 C 409.251 268, 408.972 268.120, 410.193 269.828 M 423.032 274.250 L 423.064 280.500 428 275 C 430.715 271.975, 432.951 269.163, 432.968 268.750 C 432.986 268.337, 430.750 268, 428 268 L 423 268 423.032 274.250 M 443.120 270.750 C 444.491 272.262, 447.051 275.203, 448.807 277.285 L 452 281.070 452 274.535 L 452 268 446.313 268 L 440.626 268 443.120 270.750 M 455 274 C 455 277.300, 455.337 279.974, 455.750 279.943 C 456.163 279.912, 458.673 277.212, 461.330 273.943 L 466.159 268 460.580 268 L 455 268 455 274 M 474.943 269.750 C 475.500 270.712, 477.753 273.525, 479.948 276 L 483.940 280.500 483.970 274.250 L 484 268 478.965 268 C 474.450 268, 474.034 268.181, 474.943 269.750 M 487 274 C 487 277.300, 487.337 280, 487.750 280 C 488.483 279.999, 495.885 271.727, 497.369 269.250 C 497.932 268.310, 496.739 268, 492.559 268 L 487 268 487 274 M 508.906 271.750 C 510.597 273.813, 513.107 276.850, 514.485 278.500 L 516.990 281.500 516.995 274.750 L 517 268 511.416 268 L 505.832 268 508.906 271.750 M 520 274 C 520 277.300, 520.180 280, 520.401 280 C 520.622 280, 523.141 277.300, 526 274 L 531.198 268 525.599 268 L 520 268 520 274 M 543.081 274 C 545.952 277.300, 548.457 280, 548.650 280 C 548.842 280, 549 277.300, 549 274 L 549 268 543.431 268 L 537.863 268 543.081 274 M 552.036 274.750 L 552.072 281.500 554.587 278.500 C 555.970 276.850, 558.466 273.813, 560.135 271.750 L 563.168 268 557.584 268 L 552 268 552.036 274.750 M 572.122 269.750 C 577.150 276.185, 580.533 280, 581.212 280 C 581.645 280, 582 277.300, 582 274 L 582 268 576.378 268 C 571.169 268, 570.856 268.129, 572.122 269.750 M 585.011 274.250 L 585.022 280.500 589.968 275 C 592.688 271.975, 594.933 269.163, 594.957 268.750 C 594.981 268.337, 592.750 268, 590 268 L 585 268 585.011 274.250 M 603.024 268.750 C 603.038 269.163, 605.495 272.200, 608.485 275.500 L 613.922 281.500 613.961 274.750 L 614 268 608.500 268 C 605.475 268, 603.011 268.337, 603.024 268.750 M 431.095 276.464 L 424.861 284 437.553 284 L 450.244 284 444.437 277.250 C 441.244 273.538, 438.338 270.146, 437.979 269.714 C 437.621 269.282, 434.523 272.319, 431.095 276.464 M 463.750 275.966 C 460.587 279.726, 458 283.072, 458 283.401 C 458 283.731, 463.438 284, 470.084 284 L 482.168 284 479.178 280.250 C 477.533 278.188, 474.683 274.842, 472.844 272.815 L 469.500 269.130 463.750 275.966 M 496.018 276.298 L 489.908 283.500 501.588 283.783 C 508.012 283.938, 513.478 283.855, 513.736 283.597 C 513.994 283.340, 511.487 279.972, 508.166 276.113 L 502.128 269.097 496.018 276.298 M 528.219 276.459 L 521.938 284 534.562 284 L 547.186 284 542.843 278.881 C 540.454 276.065, 537.600 272.672, 536.500 271.340 L 534.500 268.919 528.219 276.459 M 560.393 276.750 L 554.660 283.500 560.830 283.798 C 564.224 283.961, 569.715 283.961, 573.033 283.798 L 579.066 283.500 573.457 276.750 C 570.373 273.038, 567.461 270, 566.987 270 C 566.513 270, 563.546 273.038, 560.393 276.750 M 594.462 274.712 C 592.283 277.304, 589.680 280.454, 588.677 281.712 L 586.855 284 598.987 284 L 611.118 284 605.360 277 C 602.193 273.150, 599.336 270, 599.012 270 C 598.688 270, 596.641 272.121, 594.462 274.712 M 406 278 L 406 284 411.559 284 C 415.739 284, 416.932 283.690, 416.369 282.750 C 414.885 280.273, 407.483 272.001, 406.750 272 C 406.337 272, 406 274.700, 406 278 M 425.434 288.311 C 425.157 289.032, 425.059 294.770, 425.215 301.061 L 425.500 312.500 441.750 312.775 L 458 313.050 458 300.025 L 458 287 441.969 287 C 429.667 287, 425.820 287.305, 425.434 288.311 M 487 299.500 C 487 306.375, 487.261 312, 487.579 312 C 487.897 312, 494.647 308.115, 502.579 303.368 L 517 294.735 517 290.868 L 517 287 502 287 L 487 287 487 299.500 M 557.270 289.483 C 548.846 293.144, 547.595 306.268, 555.199 311.193 C 559.535 314.002, 562.909 314.223, 567.502 311.999 C 572.001 309.821, 575 305.355, 575 300.833 C 575 297.057, 571.632 291.808, 567.938 289.827 C 563.903 287.663, 561.625 287.589, 557.270 289.483 M 556.311 291.952 C 549.281 296.238, 550.327 307.822, 558.032 311.013 C 565.122 313.950, 573 308.587, 573 300.823 C 573 297.581, 572.340 296.140, 569.600 293.400 C 565.594 289.394, 561.277 288.924, 556.311 291.952 M 559.032 298.940 C 557.386 302.016, 559.391 305.209, 562.716 304.810 C 566.065 304.408, 567.893 301.644, 566.394 299.250 C 564.750 296.624, 560.370 296.440, 559.032 298.940 M 505.140 305.492 C 499.442 308.973, 494.289 312.311, 493.690 312.910 C 492.903 313.697, 495.995 314, 504.800 314 L 517 314 517 306.500 C 517 302.375, 516.663 299.037, 516.250 299.082 C 515.837 299.128, 510.838 302.012, 505.140 305.492 M 503.500 323.621 C 509.550 327.261, 515.063 330.459, 515.750 330.727 C 516.678 331.089, 517 329.386, 517 324.107 L 517 317 504.750 317.002 L 492.500 317.003 503.500 323.621 M 487 334.500 C 487 343.575, 487.178 351, 487.395 351 C 488.990 351, 515.010 334.631, 514.346 334.045 C 513.188 333.022, 488.004 318, 487.447 318 C 487.201 318, 487 325.425, 487 334.500 M 504 345.073 L 492.500 351.968 504.750 351.984 L 517 352 517 345 C 517 341.150, 516.663 338.040, 516.250 338.089 C 515.837 338.138, 510.325 341.281, 504 345.073 M 374.295 406.250 L 348.201 471.500 356.279 471.793 C 362.993 472.037, 364.648 471.784, 366.073 470.293 C 367.580 468.717, 401.706 381.937, 407.432 365.119 L 409.605 358.738 410.910 363.119 C 413.945 373.305, 451.296 468.655, 452.894 470.293 C 454.345 471.782, 456.016 472.037, 462.721 471.793 L 470.799 471.500 444.705 406.250 L 418.611 341 409.500 341 L 400.389 341 374.295 406.250 M 493.008 355.750 C 493.014 356.351, 513.110 368.557, 516.195 369.833 C 516.638 370.017, 517 366.754, 517 362.583 L 517 355 505 355 C 498.400 355, 493.004 355.337, 493.008 355.750 M 487 373.500 C 487 382.575, 487.201 390, 487.447 390 C 488.004 390, 513.188 374.978, 514.346 373.955 C 515.010 373.369, 488.990 357, 487.395 357 C 487.178 357, 487 364.425, 487 373.500 M 504 384.037 L 492.500 390.997 504.750 390.998 L 517 391 517 384 C 517 380.150, 516.663 377.017, 516.250 377.038 C 515.837 377.059, 510.325 380.209, 504 384.037 M 494.036 395.355 C 495.555 396.760, 515.747 409, 516.547 409 C 516.796 409, 517 405.625, 517 401.500 L 517 394 504.786 394 C 494.457 394, 492.797 394.209, 494.036 395.355 M 487 412.535 C 487 429.057, 487.002 429.069, 489.114 427.939 C 491.504 426.660, 514.329 412.943, 514.816 412.494 C 515.178 412.159, 488.517 396, 487.602 396 C 487.271 396, 487 403.441, 487 412.535 M 504.735 422.441 L 492.970 429.500 504.619 429.783 C 511.026 429.938, 516.453 429.880, 516.680 429.653 C 516.907 429.426, 516.959 426.122, 516.796 422.311 L 516.500 415.381 504.735 422.441 M 493 433.436 C 493 433.767, 511.887 445.366, 516.250 447.714 C 516.663 447.936, 517 444.716, 517 440.559 L 517 433 505 433 C 498.400 433, 493 433.196, 493 433.436 M 487 451.599 L 487 468.198 490.750 465.994 C 507.300 456.268, 514.806 451.496, 514.453 450.924 C 513.919 450.060, 488.612 435, 487.693 435 C 487.312 435, 487 442.469, 487 451.599 M 504.735 461.441 L 492.970 468.500 504.619 468.783 C 511.026 468.938, 516.453 468.880, 516.680 468.653 C 516.907 468.426, 516.959 465.122, 516.796 461.311 L 516.500 454.381 504.735 461.441 M 435.900 492.199 C 433.311 497.348, 432.191 500.564, 432.904 500.801 C 436.486 501.995, 446.724 509.975, 450.014 514.137 C 464.383 532.315, 467.163 563.629, 456.464 586.785 C 452.558 595.239, 443.106 605.437, 436.276 608.565 C 433.952 609.629, 432.040 610.859, 432.026 611.297 C 431.989 612.443, 440.071 627, 440.744 627 C 441.054 627, 444.276 625.352, 447.904 623.338 C 451.831 621.158, 457.759 616.403, 462.555 611.588 C 475.994 598.095, 482.497 582.509, 483.694 560.925 C 485.563 527.256, 470.972 499.570, 444.267 486.110 L 440.034 483.977 435.900 492.199 M 371.500 488.245 C 363.516 492.492, 350.345 505.654, 345.728 514 C 337.801 528.330, 334.246 546.703, 335.956 564.500 C 337.183 577.272, 338.539 582.108, 344.196 593.903 C 348.399 602.668, 350.391 605.506, 356.843 611.924 C 361.965 617.019, 366.924 620.806, 371.824 623.364 C 375.851 625.466, 379.264 627.032, 379.406 626.843 C 379.549 626.654, 381.508 623.037, 383.761 618.805 L 387.858 611.111 382.266 607.955 C 374.492 603.567, 367.718 596.245, 363.554 587.729 C 358.204 576.784, 356.615 569.379, 356.639 555.500 C 356.661 542.398, 358.793 532.288, 363.487 523.026 C 366.973 516.146, 376.034 506.751, 382.395 503.420 L 387.813 500.584 383.895 492.792 C 381.741 488.506, 379.420 485.012, 378.739 485.027 C 378.057 485.041, 374.800 486.489, 371.500 488.245 M 557.363 489.033 C 531.359 493.681, 511.819 511.792, 504.841 537.713 C 502.077 547.977, 501.836 568.204, 504.353 578.500 C 507.239 590.306, 513.436 601.508, 521.502 609.500 C 535.822 623.688, 552.420 629.985, 575.500 629.985 C 591.892 629.985, 604.022 626.977, 616.750 619.756 L 624 615.643 624 604.322 L 624 593 615.500 593 L 607 593 607 599.907 L 607 606.813 599.646 609.875 C 582.043 617.203, 560.432 616.198, 545.331 607.348 C 542.997 605.980, 538.634 602.212, 535.637 598.974 C 526.045 588.614, 522.040 576.848, 522.015 558.960 C 521.990 541.502, 526.751 528.119, 536.428 518.441 C 552.733 502.137, 582.785 499.462, 604.270 512.402 C 612.745 517.507, 613.613 517.632, 616.778 514.201 C 618.275 512.578, 620.290 509.883, 621.255 508.213 L 623.009 505.176 619.255 502.221 C 613.471 497.671, 605.205 493.392, 597.500 490.960 C 591.992 489.222, 587.515 488.683, 576.500 488.433 C 568.800 488.258, 560.188 488.528, 557.363 489.033 M 581 567.300 C 581 570.867, 581.521 574.121, 582.200 574.800 C 583.009 575.609, 587.587 576, 596.240 576 C 609.833 576, 612.662 575.250, 620.317 569.618 C 622.803 567.788, 626 563.250, 626 561.550 C 626 561.247, 615.875 561, 603.500 561 L 581 561 581 567.300 M 257.060 703.750 C 256.321 705.813, 255.508 708.063, 255.252 708.750 C 254.880 709.747, 292.103 710, 439.278 710 L 623.770 710 625.385 707.500 C 626.273 706.125, 627.727 703.875, 628.615 702.500 L 630.230 700 444.316 700 L 258.402 700 257.060 703.750 M 320.459 713.067 C 319.286 714.964, 320.996 715.432, 322.738 713.690 C 324.297 712.132, 324.300 712, 322.773 712 C 321.863 712, 320.821 712.480, 320.459 713.067 M 258 725 L 258 734 263.500 734 C 266.525 734, 269 733.550, 269 733 C 269 732.450, 266.975 732, 264.500 732 L 260 732 260 724 C 260 719.333, 259.583 716, 259 716 C 258.407 716, 258 719.667, 258 725 M 276.328 718.394 C 270.169 723.692, 274.245 734, 282.500 734 C 284.633 734, 286.920 733.113, 288.672 731.606 C 294.831 726.308, 290.755 716, 282.500 716 C 280.367 716, 278.080 716.887, 276.328 718.394 M 301.500 717.208 C 298.320 719.031, 297.066 721.236, 297.032 725.061 C 296.976 731.344, 302.727 735.222, 309.317 733.344 C 312.070 732.559, 312.542 731.934, 312.810 728.718 C 313.047 725.883, 312.750 725, 311.560 725 C 310.496 725, 310 725.947, 310 727.981 C 310 731.762, 306.273 733.064, 302.509 730.598 C 295.578 726.056, 301.642 715.062, 308.928 718.961 C 310.090 719.583, 311.543 719.783, 312.156 719.404 C 313.661 718.473, 309.234 716.072, 306 716.066 C 304.625 716.063, 302.600 716.577, 301.500 717.208 M 320 725 C 320 730.333, 320.407 734, 321 734 C 321.593 734, 322 730.333, 322 725 C 322 719.667, 321.593 716, 321 716 C 320.407 716, 320 719.667, 320 725 M 331.223 717.557 C 326.963 720.540, 329.341 724.843, 336.178 726.523 C 339.428 727.321, 340.421 729.406, 338.364 731.113 C 337.212 732.069, 335.892 732.117, 332.883 731.314 C 329.981 730.540, 329.018 730.557, 329.291 731.378 C 329.922 733.280, 334.754 734.474, 337.646 733.443 C 343.952 731.196, 343.188 726.429, 336.158 724.155 C 329.380 721.963, 331.457 716.822, 338.415 718.568 C 341.219 719.272, 342.063 717.622, 339.418 716.607 C 336.710 715.568, 333.537 715.936, 331.223 717.557 M 345 717 C 345 717.550, 346.350 718, 348 718 L 351 718 351 726 C 351 732.444, 351.292 734, 352.500 734 C 353.708 734, 354 732.444, 354 726 L 354 718 357 718 C 358.650 718, 360 717.550, 360 717 C 360 716.422, 356.833 716, 352.500 716 C 348.167 716, 345 716.422, 345 717 M 365 725 C 365 730.333, 365.407 734, 366 734 C 366.593 734, 367 730.333, 367 725 C 367 719.667, 366.593 716, 366 716 C 365.407 716, 365 719.667, 365 725 M 376.923 718.923 C 374.928 720.918, 374 722.848, 374 725 C 374 731.650, 381.851 735.952, 387.885 732.607 C 391.011 730.875, 388.984 729.594, 385.575 731.148 C 380.301 733.551, 374.881 728.073, 377.005 722.488 C 378.335 718.990, 382.240 717.333, 385.575 718.852 C 388.984 720.406, 391.011 719.125, 387.885 717.393 C 383.906 715.187, 380.132 715.714, 376.923 718.923 M 398.964 720.500 C 397.884 722.975, 396.116 727.025, 395.036 729.500 C 392.924 734.337, 393.906 735.599, 396.592 731.500 C 399 727.825, 405.075 727.959, 407.835 731.748 C 408.936 733.260, 410.108 734.225, 410.440 733.894 C 411.313 733.020, 403.295 716, 402.010 716 C 401.416 716, 400.045 718.025, 398.964 720.500 M 428.964 720.500 C 427.884 722.975, 426.116 727.025, 425.036 729.500 C 422.924 734.337, 423.906 735.599, 426.592 731.500 C 429 727.825, 435.075 727.959, 437.835 731.748 C 438.936 733.260, 440.108 734.225, 440.440 733.894 C 441.313 733.020, 433.295 716, 432.010 716 C 431.416 716, 430.045 718.025, 428.964 720.500 M 453 717 C 453 717.550, 454.350 718, 456 718 L 459 718 459 726 C 459 736.277, 460.822 736.483, 461.208 726.250 C 461.495 718.621, 461.543 718.495, 464.250 718.184 C 469.800 717.545, 466.793 716, 460 716 C 456 716, 453 716.429, 453 717 M 472.177 723.120 C 472.514 729.086, 472.956 730.546, 474.900 732.120 C 478.269 734.848, 482.434 734.535, 484.927 731.365 C 486.531 729.326, 487 727.290, 487 722.365 C 487 718.788, 486.562 716, 486 716 C 485.447 716, 485 718.630, 485 721.889 C 485 729.592, 482.656 732.967, 478.355 731.459 C 475.613 730.498, 475.488 730.173, 475.206 723.229 C 474.971 717.453, 474.597 716, 473.343 716 C 472.027 716, 471.839 717.148, 472.177 723.120 M 504 725 C 504 735.193, 505.744 737.371, 506.202 727.750 L 506.500 721.500 509.345 726.250 C 510.910 728.862, 512.578 731, 513.053 731 C 513.527 731, 515.172 728.862, 516.708 726.250 L 519.500 721.500 519.798 727.750 C 520.256 737.371, 522 735.193, 522 725 C 522 720.050, 521.663 716.005, 521.250 716.011 C 520.837 716.017, 518.948 718.717, 517.052 722.011 C 515.155 725.305, 513.355 727.995, 513.052 727.988 C 512.748 727.982, 511.020 725.282, 509.211 721.988 C 507.402 718.695, 505.489 716, 504.961 716 C 504.418 716, 504 719.911, 504 725 M 530 725 L 530 734 536.500 734 C 540.167 734, 543 733.564, 543 733 C 543 732.450, 540.750 732, 538 732 C 533.111 732, 533 731.933, 533 729 C 533 726.167, 533.222 726, 537 726 C 539.200 726, 541 725.550, 541 725 C 541 724.450, 539.200 724, 537 724 C 533.222 724, 533 723.833, 533 721 C 533 718.111, 533.167 718, 537.500 718 C 539.975 718, 542 717.550, 542 717 C 542 716.444, 539.333 716, 536 716 L 530 716 530 725 M 550 725 L 550 734 553.851 734 C 558.922 734, 563.804 732.235, 565.021 729.961 C 565.559 728.955, 566 726.722, 566 725 C 566 723.278, 565.559 721.045, 565.021 720.039 C 563.804 717.765, 558.922 716, 553.851 716 L 550 716 550 725 M 573 725 C 573 730.333, 573.407 734, 574 734 C 574.593 734, 575 730.333, 575 725 C 575 719.667, 574.593 716, 574 716 C 573.407 716, 573 719.667, 573 725 M 583 725 L 583 734 587.250 733.998 C 593.137 733.996, 598.248 731.240, 599.300 727.500 C 601.169 720.852, 595.994 716, 587.032 716 L 583 716 583 725 M 607.643 724.084 C 605.640 728.531, 604 732.581, 604 733.084 C 604 734.903, 605.704 733.945, 606.818 731.500 C 607.780 729.390, 608.637 729, 612.318 729 C 615.999 729, 616.857 729.390, 617.818 731.500 C 618.818 733.694, 621 735.011, 621 733.421 C 621 731.544, 613.332 716, 612.406 716 C 611.790 716, 609.647 719.638, 607.643 724.084 M 278 720 C 273.870 724.130, 276.821 732, 282.500 732 C 283.875 732, 285.900 731.100, 287 730 C 291.130 725.870, 288.179 718, 282.500 718 C 281.125 718, 279.100 718.900, 278 720 M 552 725 L 552 732.263 556.078 731.716 C 561.077 731.046, 564 728.568, 564 725 C 564 721.432, 561.077 718.954, 556.078 718.284 L 552 717.737 552 725 M 585.412 719.369 C 585.123 720.122, 585.024 723.160, 585.193 726.119 C 585.466 730.896, 585.763 731.537, 587.845 731.832 C 593.762 732.670, 598.026 728.225, 596.632 722.671 C 595.661 718.799, 586.648 716.147, 585.412 719.369 M 610.728 722.444 C 608.336 727.461, 608.508 728, 612.500 728 C 616.458 728, 616.481 727.924, 614.154 722.660 L 612.457 718.819 610.728 722.444 M 400.098 723.149 C 398.527 727.656, 398.662 728, 402 728 C 405.307 728, 405.740 726.717, 403.839 722.547 C 402.311 719.192, 401.428 719.334, 400.098 723.149 M 430.098 723.149 C 428.527 727.656, 428.662 728, 432 728 C 435.307 728, 435.740 726.717, 433.839 722.547 C 432.311 719.192, 431.428 719.334, 430.098 723.149" stroke="none" fill="#4A7BB5" fill-rule="evenodd"/>
</svg>